<?xml version="1.0" encoding="UTF-8" standalone="no"?>
<svg width="180" height="32" viewBox="0 0 180 32" xmlns="http://www.w3.org/2000/svg">
  <!-- Text "ReCircle" in white using paths instead of text for better compatibility -->
  <g fill="white">
    <!-- 'R' -->
    <path d="M13.2,8.1H7.8v5.6h5.4c1.5,0,2.4-1.1,2.4-2.8C15.6,9.2,14.7,8.1,13.2,8.1z M13,25h-3.1l-2.1-7.8H7.8V25H5V5.6h8.5 c3.6,0,5.7,2.4,5.7,5.4c0,2.4-1.2,4.1-3,4.9L18.5,25H13z"/>
    <!-- 'e' -->
    <path d="M27.8,19.4c-0.8,0-1.3-0.5-1.3-1.5v-0.1c0-1,0.5-1.5,1.3-1.5h5.7v0.1C33.5,18.3,30.7,19.4,27.8,19.4z M34,22.8 c-1,1.6-2.5,2.5-4.7,2.5c-4.1,0-6.6-3-6.6-7.1c0-4.3,2.8-7.1,6.7-7.1c4,0,6.5,2.8,6.5,7.1v1.4h-9.2c0,1.6,1.3,2.7,2.9,2.7 c1.3,0,2.2-0.5,2.8-1.3L34,22.8z"/>
    <!-- 'C' -->
    <path d="M47.3,22.8c-1,1.6-2.8,2.5-5,2.5c-4.1,0-6.7-3-6.7-7.1c0-4.1,2.6-7.1,6.7-7.1c2.2,0,4,0.9,5,2.5l-2.2,1.6 c-0.6-0.8-1.6-1.3-2.8-1.3c-2.1,0-3.6,1.6-3.6,4.3c0,2.7,1.5,4.3,3.6,4.3c1.2,0,2.2-0.5,2.8-1.3L47.3,22.8z"/>
    <!-- 'i' -->
    <path d="M55.5,8.6h2.8v2.8h-2.8V8.6z M55.6,11.6h2.8V25h-2.8V11.6z"/>
    <!-- 'r' -->
    <path d="M64.9,18.3c0-2-0.7-3.1-2.3-3.1h-1V25h-2.8V11.6h3.8c3.2,0,5,2.1,5,5.9v1.3c0,3.9-1.5,6.3-4.8,6.3h-0.7v-2.7 c1.7,0,2.8-1.1,2.8-3.4V18.3z"/>
    <!-- 'c' -->
    <path d="M75.7,19.4c-0.8,0-1.3-0.5-1.3-1.5v-0.1c0-1,0.5-1.5,1.3-1.5h3.3v0.1C79,18.3,77.5,19.4,75.7,19.4z M79.6,22.8 c-0.6,1.6-1.6,2.5-3.2,2.5c-3,0-4.7-3-4.7-7.1c0-4.3,1.9-7.1,4.8-7.1c1.6,0,2.7,0.8,3.2,2.5l-2.3,1.3c-0.2-0.6-0.5-1-0.9-1 c-0.9,0-1.7,1.2-1.7,4.3c0,2.7,0.6,4.3,1.7,4.3c0.5,0,0.8-0.4,0.9-1L79.6,22.8z"/>
    <!-- 'l' -->
    <path d="M85.6,5.6h2.8V25h-2.8V5.6z"/>
    <!-- 'e' -->
    <path d="M97.8,19.4c-0.8,0-1.3-0.5-1.3-1.5v-0.1c0-1,0.5-1.5,1.3-1.5h5.7v0.1C103.5,18.3,100.7,19.4,97.8,19.4z M104,22.8 c-1,1.6-2.5,2.5-4.7,2.5c-4.1,0-6.6-3-6.6-7.1c0-4.3,2.8-7.1,6.7-7.1c4,0,6.5,2.8,6.5,7.1v1.4h-9.2c0,1.6,1.3,2.7,2.9,2.7 c1.3,0,2.2-0.5,2.8-1.3L104,22.8z"/>
  </g>
  
  <!-- Interlinking circles forming a triangle in blue - moved closer to text -->
  <g transform="translate(115, 16)">
    <!-- Circle 1 - top -->
    <circle cx="0" cy="-8" r="6" fill="none" stroke="#38BDF8" stroke-width="2" opacity="0.9" />
    
    <!-- Circle 2 - bottom left -->
    <circle cx="-7" cy="4" r="6" fill="none" stroke="#38BDF8" stroke-width="2" opacity="0.9" />
    
    <!-- Circle 3 - bottom right -->
    <circle cx="7" cy="4" r="6" fill="none" stroke="#38BDF8" stroke-width="2" opacity="0.9" />
  </g>
</svg>